<?xml version="1.0" encoding="utf-8" standalone="yes"?>
<!DOCTYPE svg PUBLIC "-//W3C//DTD SVG 1.1//EN" "http://www.w3.org/Graphics/SVG/1.1/DTD/svg11.dtd">
<svg width="937" height="355" viewBox="0 0 937 355" style="fill:none;stroke:none;fill-rule:evenodd;clip-rule:evenodd;stroke-linecap:round;stroke-linejoin:round;stroke-miterlimit:1.5;" version="1.1" xmlns="http://www.w3.org/2000/svg" xmlns:xlink="http://www.w3.org/1999/xlink"><style id="fontImports">@import url("https://fonts.googleapis.com/css2?family=Roboto:wght@400;700&amp;display=block");</style><g id="items" style="isolation: isolate"><g id="blend" style="mix-blend-mode:normal"><g id="g-root-ro_hsrp10fkp1c7-fill" data-item-order="999962704" data-item-id="ro_hsrp10fkp1c7" data-item-class="Shape Stroke Fill" data-item-index="none" data-renderer-id="0" transform="translate(375, 57)"><g id="ro_hsrp10fkp1c7-fill" stroke="none" fill="#f0f0f0"><g><path d="M 34 10L 154 10C 154 10 178 10 178 34L 178 208C 178 208 178 232 154 232L 34 232C 34 232 10 232 10 208L 10 34C 10 34 10 10 34 10"></path></g></g></g><g id="g-root-ro_5v050fktb7y-fill" data-item-order="999976672" data-item-id="ro_5v050fktb7y" data-item-class="Shape Stroke Fill" data-item-index="none" data-renderer-id="0" transform="translate(3, 189)"><g id="ro_5v050fktb7y-fill" stroke="none" fill="#f7e6fe"><g><path d="M 22 10L 322 10C 322 10 334 10 334 22L 334 70C 334 70 334 82 322 82L 22 82C 22 82 10 82 10 70L 10 22C 10 22 10 10 22 10"></path></g></g></g><g id="g-root-ro_1qdty7ofkp2px-fill" data-item-order="999983152" data-item-id="ro_1qdty7ofkp2px" data-item-class="Shape Stroke Fill" data-item-index="none" data-renderer-id="0" transform="translate(591, 30)"><g id="ro_1qdty7ofkp2px-fill" stroke="none" fill="#e9fbf3"><g><path d="M 22 10L 310 10C 310 10 322 10 322 22L 322 52C 322 52 322 64 310 64L 22 64C 22 64 10 64 10 52L 10 22C 10 22 10 10 22 10"></path></g></g></g><g id="g-root-ro_90927ofkqgp7-fill" data-item-order="999983800" data-item-id="ro_90927ofkqgp7" data-item-class="Shape Stroke Fill" data-item-index="none" data-renderer-id="0" transform="translate(591, 180)"><g id="ro_90927ofkqgp7-fill" stroke="none" fill="#e6efff"><g><path d="M 22 10L 298 10C 298 10 310 10 310 22L 310 52C 310 52 310 64 298 64L 22 64C 22 64 10 64 10 52L 10 22C 10 22 10 10 22 10"></path></g></g></g><g id="g-root-ro_1hd759wfkuo06-fill" data-item-order="999987688" data-item-id="ro_1hd759wfkuo06" data-item-class="Shape Stroke Fill" data-item-index="none" data-renderer-id="0" transform="translate(99, 3)"><g id="ro_1hd759wfkuo06-fill" stroke="none" fill="#fef2e6"><g><path d="M 22 10L 226 10C 226 10 238 10 238 22L 238 52C 238 52 238 64 226 64L 22 64C 22 64 10 64 10 52L 10 22C 10 22 10 10 22 10"></path></g></g></g><g id="g-root-expl_1utngc4fkp1xo-fill" data-item-order="1000000000" data-item-id="expl_1utngc4fkp1xo" data-item-class="Icon Stroke" data-item-index="none" data-renderer-id="0" transform="translate(603, 42)"></g><g id="g-root-cu_qqwlmcfkuosq-fill" data-item-order="1000000000" data-item-id="cu_qqwlmcfkuosq" data-item-class="Curve Stroke ColorStrokeGray" data-item-index="none" data-renderer-id="0" transform="translate(285, 57)"></g><g id="g-root-cu_mb33hwfkupl1-fill" data-item-order="1000000000" data-item-id="cu_mb33hwfkupl1" data-item-class="Curve Stroke ColorStrokeGray" data-item-index="none" data-renderer-id="0" transform="translate(285, 57)"></g><g id="g-root-cu_mb33hwfkupl3-fill" data-item-order="1000000000" data-item-id="cu_mb33hwfkupl3" data-item-class="Curve Stroke ColorStrokeGray" data-item-index="none" data-renderer-id="0" transform="translate(285, 57)"></g><g id="g-root-cu_18hk510fkuosv-fill" data-item-order="1000000000" data-item-id="cu_18hk510fkuosv" data-item-class="Curve Stroke ColorStrokeGray" data-item-index="none" data-renderer-id="0" transform="translate(543, 57)"></g><g id="g-root-tx_curiosit_4o6elwfkp1c3-fill" data-item-order="1000000000" data-item-id="tx_curiosit_4o6elwfkp1c3" data-item-class="Label Stroke" data-item-index="none" data-renderer-id="0" transform="translate(639, 45)"><g id="tx_curiosit_4o6elwfkp1c3-fill" stroke="none" fill="#3bc482"><g><text style="font: 20px Roboto, sans-serif; white-space: pre;" font-weight="20px" font-size="Roboto," font-family="sans-serif"><tspan x="13.76" y="33.33" dominant-baseline="ideographic">Curiosity-Driven Exploration</tspan></text></g></g></g><g id="g-root-tx_explorat_qvweb8fkrv2m-fill" data-item-order="1000000000" data-item-id="tx_explorat_qvweb8fkrv2m" data-item-class="Label Stroke" data-item-index="none" data-renderer-id="0" transform="translate(75, 69)"><g id="tx_explorat_qvweb8fkrv2m-fill" stroke="none" fill="#484848"><g><text style="font: 20px Roboto, sans-serif; white-space: pre;" font-weight="20px" font-size="Roboto," font-family="sans-serif"><tspan x="16.94" y="33.33" dominant-baseline="ideographic">Exploration Efficiency</tspan></text></g></g></g><g id="g-root-navi_m7yq2cfkp3pq-fill" data-item-order="1000000000" data-item-id="navi_m7yq2cfkp3pq" data-item-class="Icon Stroke" data-item-index="none" data-renderer-id="0" transform="translate(435, 81)"></g><g id="g-root-cu_18hk510fkupkz-fill" data-item-order="1000000000" data-item-id="cu_18hk510fkupkz" data-item-class="Curve Stroke ColorStrokeGray" data-item-index="none" data-renderer-id="0" transform="translate(615, 84)"></g><g id="g-root-cu_zmjlv8fkun7y-fill" data-item-order="1000000000" data-item-id="cu_zmjlv8fkun7y" data-item-class="Curve Stroke ColorStrokeGray" data-item-index="none" data-renderer-id="0" transform="translate(615, 84)"></g><g id="g-root-tx_taskcomp_mg2w6sfkrvuv-fill" data-item-order="1000000000" data-item-id="tx_taskcomp_mg2w6sfkrvuv" data-item-class="Label Stroke" data-item-index="none" data-renderer-id="0" transform="translate(63, 105)"><g id="tx_taskcomp_mg2w6sfkrvuv-fill" stroke="none" fill="#484848"><g><text style="font: 20px Roboto, sans-serif; white-space: pre;" font-weight="20px" font-size="Roboto," font-family="sans-serif"><tspan x="15.42" y="33.33" dominant-baseline="ideographic">Task Completion Rates</tspan></text></g></g></g><g id="g-root-tx_rewardsf_93dfn8fkrv9k-fill" data-item-order="1000000000" data-item-id="tx_rewardsf_93dfn8fkrv9k" data-item-class="Label Stroke" data-item-index="none" data-renderer-id="0" transform="translate(639, 96)"><g id="tx_rewardsf_93dfn8fkrv9k-fill" stroke="none" fill="#484848"><g><text style="font: 20px Roboto, sans-serif; white-space: pre;" font-weight="20px" font-size="Roboto," font-family="sans-serif"><tspan x="17.21" y="33.33" dominant-baseline="ideographic">Rewards for New States</tspan></text></g></g></g><g id="g-root-tx_visualiz_i09e2cfkrwn4-fill" data-item-order="1000000000" data-item-id="tx_visualiz_i09e2cfkrwn4" data-item-class="Label Stroke" data-item-index="none" data-renderer-id="0" transform="translate(147, 141)"><g id="tx_visualiz_i09e2cfkrwn4-fill" stroke="none" fill="#484848"><g><text style="font: 20px Roboto, sans-serif; white-space: pre;" font-weight="20px" font-size="Roboto," font-family="sans-serif"><tspan x="13.78" y="33.33" dominant-baseline="ideographic">Visualizations</tspan></text></g></g></g><g id="g-root-tx_curiosit_v3lqb8fkp2x1-fill" data-item-order="1000000000" data-item-id="tx_curiosit_v3lqb8fkp2x1" data-item-class="Label Stroke" data-item-index="none" data-renderer-id="0" transform="translate(399, 135)"><g id="tx_curiosit_v3lqb8fkp2x1-fill" stroke="none" fill="#484848"><g><text style="font: 20px Roboto, sans-serif; white-space: pre;" font-weight="20px" font-size="Roboto," font-family="sans-serif"><tspan x="25.65" y="33.33" dominant-baseline="ideographic">Curiosity-</tspan><tspan x="39.55" y="57.33" dominant-baseline="ideographic">Driven </tspan><tspan x="16.8" y="81.33" dominant-baseline="ideographic">Pathfinding </tspan><tspan x="25.72" y="105.33" dominant-baseline="ideographic">Agents in </tspan><tspan x="36.33" y="129.33" dominant-baseline="ideographic">CARLA</tspan></text></g></g></g><g id="g-root-tx_diversee_4njxisfkrw1t-fill" data-item-order="1000000000" data-item-id="tx_diversee_4njxisfkrw1t" data-item-class="Label Stroke" data-item-index="none" data-renderer-id="0" transform="translate(639, 132)"><g id="tx_diversee_4njxisfkrw1t-fill" stroke="none" fill="#484848"><g><text style="font: 20px Roboto, sans-serif; white-space: pre;" font-weight="20px" font-size="Roboto," font-family="sans-serif"><tspan x="16.93" y="33.33" dominant-baseline="ideographic">Diverse Experience Collection</tspan></text></g></g></g><g id="g-root-cu_18hk510fkupkw-fill" data-item-order="1000000000" data-item-id="cu_18hk510fkupkw" data-item-class="Curve Stroke ColorStrokeGray" data-item-index="none" data-renderer-id="0" transform="translate(327, 30)"></g><g id="g-root-metr_1hd759wfkuo05-fill" data-item-order="1000000000" data-item-id="metr_1hd759wfkuo05" data-item-class="Icon Stroke" data-item-index="none" data-renderer-id="0" transform="translate(285, 15)"></g><g id="g-root-tx_proximal_dhbiicfkt9n0-fill" data-item-order="1000000000" data-item-id="tx_proximal_dhbiicfkt9n0" data-item-class="Label Stroke" data-item-index="none" data-renderer-id="0" transform="translate(15, 201)"><g id="tx_proximal_dhbiicfkt9n0-fill" stroke="none" fill="#b65edf"><g><text style="font: 20px Roboto, sans-serif; white-space: pre;" font-weight="20px" font-size="Roboto," font-family="sans-serif"><tspan x="11.91" y="33.33" dominant-baseline="ideographic">Proximal Policy Optimization </tspan><tspan x="113.13" y="57.33" dominant-baseline="ideographic">(PPO)</tspan></text></g></g></g><g id="g-root-lear_hvw2gkfkqfwi-fill" data-item-order="1000000000" data-item-id="lear_hvw2gkfkqfwi" data-item-class="Icon Stroke" data-item-index="none" data-renderer-id="0" transform="translate(603, 192)"></g><g id="g-root-cu_141qmwkfkupl9-fill" data-item-order="1000000000" data-item-id="cu_141qmwkfkupl9" data-item-class="Curve Stroke ColorStrokeGray" data-item-index="none" data-renderer-id="0" transform="translate(327, 205)"></g><g id="g-root-tx_semisupe_mb33hwfkqia1-fill" data-item-order="1000000000" data-item-id="tx_semisupe_mb33hwfkqia1" data-item-class="Label Stroke" data-item-index="none" data-renderer-id="0" transform="translate(639, 195)"><g id="tx_semisupe_mb33hwfkqia1-fill" stroke="none" fill="#4682e3"><g><text style="font: 20px Roboto, sans-serif; white-space: pre;" font-weight="20px" font-size="Roboto," font-family="sans-serif"><tspan x="14.58" y="33.33" dominant-baseline="ideographic">Semi-Supervised Learning</tspan></text></g></g></g><g id="g-root-disc_91i0dwfktaf9-fill" data-item-order="1000000000" data-item-id="disc_91i0dwfktaf9" data-item-class="Icon Stroke" data-item-index="none" data-renderer-id="0" transform="translate(285, 210)"></g><g id="g-root-cu_1cxdn5gfkuosi-fill" data-item-order="1000000000" data-item-id="cu_1cxdn5gfkuosi" data-item-class="Curve Stroke ColorStrokeGray" data-item-index="none" data-renderer-id="0" transform="translate(543, 205)"></g><g id="g-root-cu_v6q3qsfkuo08-fill" data-item-order="1000000000" data-item-id="cu_v6q3qsfkuo08" data-item-class="Curve Stroke ColorStrokeGray" data-item-index="none" data-renderer-id="0" transform="translate(615, 234)"></g><g id="g-root-cu_v6q3qsfkuo0b-fill" data-item-order="1000000000" data-item-id="cu_v6q3qsfkuo0b" data-item-class="Curve Stroke ColorStrokeGray" data-item-index="none" data-renderer-id="0" transform="translate(615, 234)"></g><g id="g-root-tx_unsuperv_1qdty7ofkru9u-fill" data-item-order="1000000000" data-item-id="tx_unsuperv_1qdty7ofkru9u" data-item-class="Label Stroke" data-item-index="none" data-renderer-id="0" transform="translate(639, 246)"><g id="tx_unsuperv_1qdty7ofkru9u-fill" stroke="none" fill="#484848"><g><text style="font: 20px Roboto, sans-serif; white-space: pre;" font-weight="20px" font-size="Roboto," font-family="sans-serif"><tspan x="17.19" y="33.33" dominant-baseline="ideographic">Unsupervised Exploration</tspan></text></g></g></g><g id="g-root-tx_intrinsi_1d2dfucfkrvus-fill" data-item-order="1000000000" data-item-id="tx_intrinsi_1d2dfucfkrvus" data-item-class="Label Stroke" data-item-index="none" data-renderer-id="0" transform="translate(111, 273)"><g id="tx_intrinsi_1d2dfucfkrvus-fill" stroke="none" fill="#484848"><g><text style="font: 20px Roboto, sans-serif; white-space: pre;" font-weight="20px" font-size="Roboto," font-family="sans-serif"><tspan x="17.38" y="33.33" dominant-baseline="ideographic">Intrinsic Rewards</tspan></text></g></g></g><g id="g-root-cu_qqwlmcfkuosl-fill" data-item-order="1000000000" data-item-id="cu_qqwlmcfkuosl" data-item-class="Curve Stroke ColorStrokeGray" data-item-index="none" data-renderer-id="0" transform="translate(285, 261)"></g><g id="g-root-cu_qqwlmcfkuoso-fill" data-item-order="1000000000" data-item-id="cu_qqwlmcfkuoso" data-item-class="Curve Stroke ColorStrokeGray" data-item-index="none" data-renderer-id="0" transform="translate(285, 261)"></g><g id="g-root-tx_minimals_1hi6xysfkrv2j-fill" data-item-order="1000000000" data-item-id="tx_minimals_1hi6xysfkrv2j" data-item-class="Label Stroke" data-item-index="none" data-renderer-id="0" transform="translate(639, 282)"><g id="tx_minimals_1hi6xysfkrv2j-fill" stroke="none" fill="#484848"><g><text style="font: 20px Roboto, sans-serif; white-space: pre;" font-weight="20px" font-size="Roboto," font-family="sans-serif"><tspan x="15.89" y="33.33" dominant-baseline="ideographic">Minimal Supervision</tspan></text></g></g></g><g id="g-root-tx_noveltya_zrjek4fkru9x-fill" data-item-order="1000000000" data-item-id="tx_noveltya_zrjek4fkru9x" data-item-class="Label Stroke" data-item-index="none" data-renderer-id="0" transform="translate(87, 309)"><g id="tx_noveltya_zrjek4fkru9x-fill" stroke="none" fill="#484848"><g><text style="font: 20px Roboto, sans-serif; white-space: pre;" font-weight="20px" font-size="Roboto," font-family="sans-serif"><tspan x="13.16" y="33.33" dominant-baseline="ideographic">Novelty and Diversity</tspan></text></g></g></g><g id="g-root-tx_evaluati_1lt0necfkun7w-fill" data-item-order="1000000000" data-item-id="tx_evaluati_1lt0necfkun7w" data-item-class="Label Stroke" data-item-index="none" data-renderer-id="0" transform="translate(111, 18)"><g id="tx_evaluati_1lt0necfkun7w-fill" stroke="none" fill="#dd8433"><g><text style="font: 20px Roboto, sans-serif; white-space: pre;" font-weight="20px" font-size="Roboto," font-family="sans-serif"><tspan x="11.97" y="33.33" dominant-baseline="ideographic">Evaluation Metrics</tspan></text></g></g></g><g id="g-root-ro_hsrp10fkp1c7-stroke" data-item-order="999962704" data-item-id="ro_hsrp10fkp1c7" data-item-class="Shape Stroke Fill" data-item-index="none" data-renderer-id="0" transform="translate(375, 57)"><g id="ro_hsrp10fkp1c7-stroke" fill="none" stroke-linecap="round" stroke-linejoin="round" stroke-miterlimit="4" stroke="#484848" stroke-width="2"><g><path d="M 34 10L 154 10C 154 10 178 10 178 34L 178 208C 178 208 178 232 154 232L 34 232C 34 232 10 232 10 208L 10 34C 10 34 10 10 34 10"></path></g></g></g><g id="g-root-ro_5v050fktb7y-stroke" data-item-order="999976672" data-item-id="ro_5v050fktb7y" data-item-class="Shape Stroke Fill" data-item-index="none" data-renderer-id="0" transform="translate(3, 189)"><g id="ro_5v050fktb7y-stroke" fill="none" stroke-linecap="round" stroke-linejoin="round" stroke-miterlimit="4" stroke="#b65edf" stroke-width="2"><g><path d="M 22 10L 322 10C 322 10 334 10 334 22L 334 70C 334 70 334 82 322 82L 22 82C 22 82 10 82 10 70L 10 22C 10 22 10 10 22 10"></path></g></g></g><g id="g-root-ro_1qdty7ofkp2px-stroke" data-item-order="999983152" data-item-id="ro_1qdty7ofkp2px" data-item-class="Shape Stroke Fill" data-item-index="none" data-renderer-id="0" transform="translate(591, 30)"><g id="ro_1qdty7ofkp2px-stroke" fill="none" stroke-linecap="round" stroke-linejoin="round" stroke-miterlimit="4" stroke="#3bc482" stroke-width="2"><g><path d="M 22 10L 310 10C 310 10 322 10 322 22L 322 52C 322 52 322 64 310 64L 22 64C 22 64 10 64 10 52L 10 22C 10 22 10 10 22 10"></path></g></g></g><g id="g-root-ro_90927ofkqgp7-stroke" data-item-order="999983800" data-item-id="ro_90927ofkqgp7" data-item-class="Shape Stroke Fill" data-item-index="none" data-renderer-id="0" transform="translate(591, 180)"><g id="ro_90927ofkqgp7-stroke" fill="none" stroke-linecap="round" stroke-linejoin="round" stroke-miterlimit="4" stroke="#4682e3" stroke-width="2"><g><path d="M 22 10L 298 10C 298 10 310 10 310 22L 310 52C 310 52 310 64 298 64L 22 64C 22 64 10 64 10 52L 10 22C 10 22 10 10 22 10"></path></g></g></g><g id="g-root-ro_1hd759wfkuo06-stroke" data-item-order="999987688" data-item-id="ro_1hd759wfkuo06" data-item-class="Shape Stroke Fill" data-item-index="none" data-renderer-id="0" transform="translate(99, 3)"><g id="ro_1hd759wfkuo06-stroke" fill="none" stroke-linecap="round" stroke-linejoin="round" stroke-miterlimit="4" stroke="#dd8433" stroke-width="2"><g><path d="M 22 10L 226 10C 226 10 238 10 238 22L 238 52C 238 52 238 64 226 64L 22 64C 22 64 10 64 10 52L 10 22C 10 22 10 10 22 10"></path></g></g></g><g id="g-root-expl_1utngc4fkp1xo-stroke" data-item-order="1000000000" data-item-id="expl_1utngc4fkp1xo" data-item-class="Icon Stroke" data-item-index="none" data-renderer-id="0" transform="translate(603, 42)"><g id="expl_1utngc4fkp1xo-stroke" fill="none" stroke-linecap="round" stroke-linejoin="round" stroke-miterlimit="4" stroke="#3bc482" stroke-width="2"><g><path d="M 14.6875 34.0625C 14.6875 34.407677 14.967322 34.6875 15.3125 34.6875C 15.657679 34.6875 15.9375 34.407677 15.9375 34.0625C 15.9375 33.717323 15.657679 33.4375 15.3125 33.4375C 14.967322 33.4375 14.6875 33.717323 14.6875 34.0625M 30.3125 34.0625C 30.3125 34.407677 30.592323 34.6875 30.9375 34.6875C 31.282677 34.6875 31.5625 34.407677 31.5625 34.0625C 31.5625 33.717323 31.282677 33.4375 30.9375 33.4375C 30.592323 33.4375 30.3125 33.717323 30.3125 34.0625M 22.8125 34.0625L 26.5625 34.0625M 12.1875 30.93375L 12.1875 27.18375C 12.1875 25.803038 13.306788 24.68375 14.6875 24.68375L 31.5625 24.68375C 32.943214 24.68375 34.0625 25.803038 34.0625 27.18375L 34.0625 31M 25.401251 24.6875L 23.60375 18.594999M 26.125 18.375L 27.95875 24.529999C 27.97135 24.581905 27.980949 24.634493 27.987501 24.687502M 22.372499 16.5625C 22.372499 17.84104 23.408962 18.877501 24.6875 18.877501C 25.96604 18.877501 27.002501 17.84104 27.002501 16.5625C 27.002501 15.28396 25.96604 14.2475 24.6875 14.2475C 23.408962 14.2475 22.372499 15.28396 22.372499 16.5625M 30.158751 17.8125L 26.63625 17.8125M 26.63625 15.3125L 30.158751 15.3125M 36.852501 17.63625L 35.665001 19.0625L 33.584999 19.0625L 32.334999 16.5625L 33.584999 14.0625L 35.665001 14.0625L 36.852501 15.48875C 37.294987 16.019054 38.083614 16.090191 38.613857 15.647631C 39.1441 15.20507 39.21513 14.416434 38.772499 13.88625L 37.209999 12.01125C 36.972374 11.726714 36.620708 11.56233 36.25 11.5625L 32.8125 11.5625C 32.339169 11.562753 31.906578 11.830338 31.695002 12.25375C 30.07 15.49625 29.695 16.119999 29.695 16.5625C 29.695 17.005001 29.76 17.01375 31.695002 20.87125C 31.906578 21.294662 32.339169 21.562248 32.8125 21.5625L 36.25 21.5625C 36.620708 21.56267 36.972374 21.398285 37.209999 21.11375L 38.772499 19.23875C 39.21513 18.708565 39.1441 17.91993 38.613857 17.477367C 38.083614 17.034807 37.294987 17.105946 36.852497 17.63625ZM 16.74 24.6875L 16.74 20.3125M 13.885 24.818748L 13.885 20.3125M 19.575001 18.95875C 19.604076 19.307848 19.485334 19.653128 19.247688 19.910498C 19.010042 20.16787 18.675304 20.313709 18.325001 20.3125L 12.29625 20.3125C 11.945945 20.313709 11.611208 20.16787 11.373562 19.910498C 11.135917 19.653128 11.017173 19.307848 11.04625 18.95875L 11.45875 14.0625C 11.517737 13.416915 12.060482 12.923561 12.70875 12.92625L 17.921249 12.92625C 18.569519 12.923561 19.112263 13.416915 19.171249 14.0625ZM 14.6875 16.5625C 14.6875 16.907679 14.967322 17.1875 15.3125 17.1875C 15.657679 17.1875 15.9375 16.907679 15.9375 16.5625C 15.9375 16.217321 15.657679 15.9375 15.3125 15.9375C 14.967322 15.9375 14.6875 16.217321 14.6875 16.5625M 10.9375 35.3125L 13.4375 38.4375L 17.1875 38.4375L 19.6875 35.3125L 19.6875 32.8125L 17.1875 29.6875L 13.4375 29.6875L 10.9375 32.8125L 10.9375 35.3125ZM 26.5625 35.3125L 29.0625 38.4375L 32.8125 38.4375L 35.3125 35.3125L 35.3125 32.8125L 32.8125 29.6875L 29.0625 29.6875L 26.5625 32.8125L 26.5625 35.3125ZM 19.247499 27.844999L 27.056252 27.844999"></path></g></g></g><g id="g-root-cu_qqwlmcfkuosq-stroke" data-item-order="1000000000" data-item-id="cu_qqwlmcfkuosq" data-item-class="Curve Stroke ColorStrokeGray" data-item-index="none" data-renderer-id="0" transform="translate(285, 57)"><g id="cu_qqwlmcfkuosq-stroke" fill="none" stroke-linecap="round" stroke-linejoin="round" stroke-miterlimit="4" stroke="#888888" stroke-width="2" stroke-dasharray="5.0, 7.0"><g><path d="M 28 10L 28 22L 28 34L 19 34L 10 34"></path></g></g></g><g id="g-root-cu_mb33hwfkupl1-stroke" data-item-order="1000000000" data-item-id="cu_mb33hwfkupl1" data-item-class="Curve Stroke ColorStrokeGray" data-item-index="none" data-renderer-id="0" transform="translate(285, 57)"><g id="cu_mb33hwfkupl1-stroke" fill="none" stroke-linecap="round" stroke-linejoin="round" stroke-miterlimit="4" stroke="#888888" stroke-width="2" stroke-dasharray="5.0, 7.0"><g><path d="M 28 10L 28 40L 28 70L 19 70L 10 70"></path></g></g></g><g id="g-root-cu_mb33hwfkupl3-stroke" data-item-order="1000000000" data-item-id="cu_mb33hwfkupl3" data-item-class="Curve Stroke ColorStrokeGray" data-item-index="none" data-renderer-id="0" transform="translate(285, 57)"><g id="cu_mb33hwfkupl3-stroke" fill="none" stroke-linecap="round" stroke-linejoin="round" stroke-miterlimit="4" stroke="#888888" stroke-width="2" stroke-dasharray="5.0, 7.0"><g><path d="M 28 10L 28 22L 28 94C 28.000002 100.627415 22.627419 105.999998 16.000002 105.999998L 15.9 106L 10 106"></path></g></g></g><g id="g-root-cu_18hk510fkuosv-stroke" data-item-order="1000000000" data-item-id="cu_18hk510fkuosv" data-item-class="Curve Stroke ColorStrokeGray" data-item-index="none" data-renderer-id="0" transform="translate(543, 57)"><g id="cu_18hk510fkuosv-stroke" fill="none" stroke-linecap="round" stroke-linejoin="round" stroke-miterlimit="4" stroke="#888888" stroke-width="2" stroke-dasharray="5.0, 7.0"><g><path d="M 10 84L 13 84L 13.1 84C 24.642751 84.000007 34.000001 74.642757 34.000001 63.100005L 34 63L 34 30.9C 33.999999 19.357249 43.357248 10.000001 54.899999 10.000002L 55 10L 58 10"></path></g></g></g><g id="g-root-tx_curiosit_4o6elwfkp1c3-stroke" data-item-order="1000000000" data-item-id="tx_curiosit_4o6elwfkp1c3" data-item-class="Label Stroke" data-item-index="none" data-renderer-id="0" transform="translate(639, 45)"></g><g id="g-root-tx_explorat_qvweb8fkrv2m-stroke" data-item-order="1000000000" data-item-id="tx_explorat_qvweb8fkrv2m" data-item-class="Label Stroke" data-item-index="none" data-renderer-id="0" transform="translate(75, 69)"></g><g id="g-root-navi_m7yq2cfkp3pq-stroke" data-item-order="1000000000" data-item-id="navi_m7yq2cfkp3pq" data-item-class="Icon Stroke" data-item-index="none" data-renderer-id="0" transform="translate(435, 81)"><g id="navi_m7yq2cfkp3pq-stroke" fill="none" stroke-linecap="round" stroke-linejoin="round" stroke-miterlimit="4" stroke="#484848" stroke-width="2"><g><path d="M 34.922001 54.848C 34.92466 55.417824 34.700161 55.965221 34.298168 56.369091C 33.896179 56.772961 33.349831 57.000004 32.779999 57L 13.493999 57C 12.92417 57.000004 12.377823 56.772961 11.975831 56.369091C 11.573839 55.965221 11.349339 55.417824 11.352 54.848L 11.352 49.490002C 11.296679 45.243046 13.53071 41.294807 17.199739 39.155197C 20.868771 37.015587 25.405231 37.015587 29.074261 39.155197C 32.743294 41.294807 34.977322 45.243046 34.922001 49.490002ZM 18.638 44.990002C 18.638 45.266144 18.861858 45.490002 19.138 45.490002C 19.414143 45.490002 19.638 45.266144 19.638 44.990002C 19.638 44.713856 19.414143 44.490002 19.138 44.490002C 18.861858 44.490002 18.638 44.713856 18.638 44.990002M 26.638 44.978001C 26.638 45.254143 26.861858 45.478001 27.138 45.478001C 27.414143 45.478001 27.638 45.254143 27.638 44.978001C 27.638 44.701859 27.414143 44.478001 27.138 44.478001C 26.861858 44.478001 26.638 44.701859 26.638 44.978001M 23.138 37.704002L 23.138 33.417999M 19.924 30.204C 19.924 31.979044 21.362957 33.417999 23.138 33.417999C 24.913044 33.417999 26.352001 31.979044 26.352001 30.204C 26.352001 28.428957 24.913044 26.99 23.138 26.99C 21.362957 26.99 19.924 28.428957 19.924 30.204M 11.352 51.619999L 34.922001 51.619999M 43.813999 37.431999C 43.936905 37.902744 44.331879 38.252693 44.813999 38.318001C 45.275295 38.386204 45.724869 38.135986 45.91 37.708L 56.566002 12.6C 56.735905 12.17251 56.631729 11.684772 56.302002 11.364C 55.981411 11.032437 55.491955 10.928061 55.063999 11.1L 29.950001 21.76C 29.52545 21.947926 29.279556 22.397093 29.35 22.855999C 29.420092 23.33408 29.770082 23.723482 30.238001 23.844L 41.091999 26.577999Z"></path></g></g></g><g id="g-root-cu_18hk510fkupkz-stroke" data-item-order="1000000000" data-item-id="cu_18hk510fkupkz" data-item-class="Curve Stroke ColorStrokeGray" data-item-index="none" data-renderer-id="0" transform="translate(615, 84)"><g id="cu_18hk510fkupkz-stroke" fill="none" stroke-linecap="round" stroke-linejoin="round" stroke-miterlimit="4" stroke="#888888" stroke-width="2" stroke-dasharray="5.0, 7.0"><g><path d="M 10 10L 10 22L 10 34L 19 34L 28 34"></path></g></g></g><g id="g-root-cu_zmjlv8fkun7y-stroke" data-item-order="1000000000" data-item-id="cu_zmjlv8fkun7y" data-item-class="Curve Stroke ColorStrokeGray" data-item-index="none" data-renderer-id="0" transform="translate(615, 84)"><g id="cu_zmjlv8fkun7y-stroke" fill="none" stroke-linecap="round" stroke-linejoin="round" stroke-miterlimit="4" stroke="#888888" stroke-width="2" stroke-dasharray="5.0, 7.0"><g><path d="M 10 10L 10 17.5L 10 58C 10.000002 64.627417 15.372585 70 22.000002 69.999999L 22.1 70L 28 70"></path></g></g></g><g id="g-root-tx_taskcomp_mg2w6sfkrvuv-stroke" data-item-order="1000000000" data-item-id="tx_taskcomp_mg2w6sfkrvuv" data-item-class="Label Stroke" data-item-index="none" data-renderer-id="0" transform="translate(63, 105)"></g><g id="g-root-tx_rewardsf_93dfn8fkrv9k-stroke" data-item-order="1000000000" data-item-id="tx_rewardsf_93dfn8fkrv9k" data-item-class="Label Stroke" data-item-index="none" data-renderer-id="0" transform="translate(639, 96)"></g><g id="g-root-tx_visualiz_i09e2cfkrwn4-stroke" data-item-order="1000000000" data-item-id="tx_visualiz_i09e2cfkrwn4" data-item-class="Label Stroke" data-item-index="none" data-renderer-id="0" transform="translate(147, 141)"></g><g id="g-root-tx_curiosit_v3lqb8fkp2x1-stroke" data-item-order="1000000000" data-item-id="tx_curiosit_v3lqb8fkp2x1" data-item-class="Label Stroke" data-item-index="none" data-renderer-id="0" transform="translate(399, 135)"></g><g id="g-root-tx_diversee_4njxisfkrw1t-stroke" data-item-order="1000000000" data-item-id="tx_diversee_4njxisfkrw1t" data-item-class="Label Stroke" data-item-index="none" data-renderer-id="0" transform="translate(639, 132)"></g><g id="g-root-cu_18hk510fkupkw-stroke" data-item-order="1000000000" data-item-id="cu_18hk510fkupkw" data-item-class="Curve Stroke ColorStrokeGray" data-item-index="none" data-renderer-id="0" transform="translate(327, 30)"><g id="cu_18hk510fkupkw-stroke" fill="none" stroke-linecap="round" stroke-linejoin="round" stroke-miterlimit="4" stroke="#888888" stroke-width="2" stroke-dasharray="5.0, 7.0"><g><path d="M 58 111L 55 111L 54.9 111C 43.357245 110.999995 33.999997 101.642746 33.999997 90.099996L 34 90L 34 30.9C 33.999998 19.357248 24.64275 10 13.1 10L 13 10L 10 10"></path></g></g></g><g id="g-root-metr_1hd759wfkuo05-stroke" data-item-order="1000000000" data-item-id="metr_1hd759wfkuo05" data-item-class="Icon Stroke" data-item-index="none" data-renderer-id="0" transform="translate(285, 15)"><g id="metr_1hd759wfkuo05-stroke" fill="none" stroke-linecap="round" stroke-linejoin="round" stroke-miterlimit="4" stroke="#dd8433" stroke-width="2"><g><path d="M 12.54125 12.54125L 37.458748 12.54125C 37.458748 12.54125 39.375 12.54125 39.375 14.4575L 39.375 35.541252C 39.375 35.541252 39.375 37.4575 37.458748 37.4575L 12.54125 37.4575C 12.54125 37.4575 10.625 37.4575 10.625 35.541252L 10.625 14.4575C 10.625 14.4575 10.625 12.54125 12.54125 12.54125M 10.625 18.29125L 39.375 18.29125M 22.643749 29.546249C 21.789263 31.256016 19.946012 32.237389 18.050457 31.991783C 16.154902 31.746178 14.622632 30.327444 14.232112 28.456362C 13.841591 26.585279 14.67844 24.672077 16.317499 23.688749M 31.38875 32.0275C 29.302097 32.026794 27.493374 30.582882 27.030434 28.548233C 26.567493 26.513582 27.573441 24.429249 29.454374 23.52581C 31.335308 22.62237 33.591049 23.140064 34.889824 24.773249C 36.188599 26.406435 36.18504 28.720816 34.881248 30.349998M 20.047501 23.278749C 21.388956 23.728308 22.440893 24.782558 22.887501 26.125M 13.34375 15.3125C 13.34375 15.571383 13.553617 15.78125 13.8125 15.78125C 14.071383 15.78125 14.28125 15.571383 14.28125 15.3125C 14.28125 15.053617 14.071383 14.84375 13.8125 14.84375C 13.553617 14.84375 13.34375 15.053617 13.34375 15.3125M 16.93375 15.3125C 16.93375 15.571383 17.143616 15.78125 17.4025 15.78125C 17.661385 15.78125 17.87125 15.571383 17.87125 15.3125C 17.87125 15.053617 17.661385 14.84375 17.4025 14.84375C 17.143616 14.84375 16.93375 15.053617 16.93375 15.3125M 20.525 15.3125C 20.525 15.571383 20.734867 15.78125 20.99375 15.78125C 21.252634 15.78125 21.4625 15.571383 21.4625 15.3125C 21.4625 15.053617 21.252634 14.84375 20.99375 14.84375C 20.734867 14.84375 20.525 15.053617 20.525 15.3125"></path></g></g></g><g id="g-root-tx_proximal_dhbiicfkt9n0-stroke" data-item-order="1000000000" data-item-id="tx_proximal_dhbiicfkt9n0" data-item-class="Label Stroke" data-item-index="none" data-renderer-id="0" transform="translate(15, 201)"></g><g id="g-root-lear_hvw2gkfkqfwi-stroke" data-item-order="1000000000" data-item-id="lear_hvw2gkfkqfwi" data-item-class="Icon Stroke" data-item-index="none" data-renderer-id="0" transform="translate(603, 192)"><g id="lear_hvw2gkfkqfwi-stroke" fill="none" stroke-linecap="round" stroke-linejoin="round" stroke-miterlimit="4" stroke="#4682e3" stroke-width="2"><g><path d="M 30.5825 10.625L 38.0825 10.625C 38.0825 10.625 39.3325 10.625 39.3325 11.875L 39.3325 13.125C 39.3325 13.125 39.3325 14.375 38.0825 14.375L 30.5825 14.375C 30.5825 14.375 29.3325 14.375 29.3325 13.125L 29.3325 11.875C 29.3325 11.875 29.3325 10.625 30.5825 10.625M 15.98 14.6875C 15.98 16.585979 17.519022 18.125 19.4175 18.125C 21.315979 18.125 22.855 16.585979 22.855 14.6875C 22.855 12.789021 21.315979 11.25 19.4175 11.25C 17.519022 11.25 15.98 12.789021 15.98 14.6875M 27.75625 18.828751C 27.10957 18.022926 25.932863 17.89212 25.125 18.536249L 24.225 19.25625C 23.115839 20.143198 21.73768 20.62595 20.317499 20.625L 17.202499 20.625C 15.78275 20.626076 14.405779 21.111082 13.29875 22L 11.375 23.536251C 10.566593 24.18346 10.435916 25.363468 11.083125 26.171877C 11.730334 26.980282 12.910343 27.11096 13.71875 26.463751L 16.32625 24.375L 17.5425 24.375L 17.5425 28.932499L 15.375 33.263748L 12.5625 36.078751C 11.829965 36.774155 11.742992 37.911282 12.36125 38.709999C 12.699726 39.1106 13.190508 39.351128 13.714491 39.373222C 14.238473 39.395309 14.747758 39.196938 15.118751 38.826252L 18.24375 35.701252C 18.385817 35.559525 18.504011 35.395741 18.59375 35.216251L 20.255001 31.893749L 22.66625 33.098751L 23.1775 37.709999C 23.284349 38.658005 24.085995 39.374641 25.040001 39.375C 25.153473 39.374966 25.266758 39.365768 25.37875 39.3475C 26.35235 39.176025 27.022682 38.274208 26.90625 37.292503L 26.28125 31.6675C 26.210052 31.035063 25.823925 30.481503 25.255001 30.196249L 21.2925 28.216249L 21.2925 24.375L 21.6325 24.375C 23.052576 24.37361 24.42984 23.888657 25.5375 23L 27.465 21.45875C 28.269625 20.811792 28.399824 19.636084 27.75625 18.828751ZM 29.473751 26.34C 32.532082 27.868832 36.131672 27.868832 39.190002 26.34M 30.9725 22.280001C 33.074524 23.390091 35.589226 23.390091 37.69125 22.280001M 32.452499 18.258749C 33.606606 18.962463 35.057148 18.962463 36.21125 18.258751"></path></g></g></g><g id="g-root-cu_141qmwkfkupl9-stroke" data-item-order="1000000000" data-item-id="cu_141qmwkfkupl9" data-item-class="Curve Stroke ColorStrokeGray" data-item-index="none" data-renderer-id="0" transform="translate(327, 205)"><g id="cu_141qmwkfkupl9-stroke" fill="none" stroke-linecap="round" stroke-linejoin="round" stroke-miterlimit="4" stroke="#888888" stroke-width="2" stroke-dasharray="5.0, 7.0"><g><path d="M 58 10L 55 10L 54.9 10C 51.282627 9.987358 47.318442 10.875882 43.299999 12.599998C 40.914234 13.640327 37.600887 16.276754 34 20C 30.399114 23.723246 27.085767 26.359673 24.7 27.4C 20.681558 29.124114 16.717372 30.012639 13.100001 30L 13 30L 10 30"></path></g></g></g><g id="g-root-tx_semisupe_mb33hwfkqia1-stroke" data-item-order="1000000000" data-item-id="tx_semisupe_mb33hwfkqia1" data-item-class="Label Stroke" data-item-index="none" data-renderer-id="0" transform="translate(639, 195)"></g><g id="g-root-disc_91i0dwfktaf9-stroke" data-item-order="1000000000" data-item-id="disc_91i0dwfktaf9" data-item-class="Icon Stroke" data-item-index="none" data-renderer-id="0" transform="translate(285, 210)"><g id="disc_91i0dwfktaf9-stroke" fill="none" stroke-linecap="round" stroke-linejoin="round" stroke-miterlimit="4" stroke="#b65edf" stroke-width="2"><g><path d="M 11.071428 25C 11.071429 32.692539 17.307463 38.92857 25 38.92857C 32.692539 38.92857 38.92857 32.692539 38.92857 25C 38.92857 17.307463 32.692539 11.071429 25 11.071429C 17.307463 11.071429 11.071429 17.307463 11.071429 25M 21.785713 25C 21.785713 26.775202 23.2248 28.214285 25 28.214285C 26.775202 28.214285 28.214285 26.775202 28.214285 25C 28.214285 23.2248 26.775202 21.785713 25 21.785713C 23.2248 21.785713 21.785713 23.2248 21.785713 25"></path></g></g></g><g id="g-root-cu_1cxdn5gfkuosi-stroke" data-item-order="1000000000" data-item-id="cu_1cxdn5gfkuosi" data-item-class="Curve Stroke ColorStrokeGray" data-item-index="none" data-renderer-id="0" transform="translate(543, 205)"><g id="cu_1cxdn5gfkuosi-stroke" fill="none" stroke-linecap="round" stroke-linejoin="round" stroke-miterlimit="4" stroke="#888888" stroke-width="2" stroke-dasharray="5.0, 7.0"><g><path d="M 10 10L 13 10L 13.1 10C 16.280795 10.018665 19.796587 10.119116 23.599999 10.3L 34 11L 44.4 11.7C 48.203635 11.880838 51.719405 11.981288 54.900003 12L 55 12L 58 12"></path></g></g></g><g id="g-root-cu_v6q3qsfkuo08-stroke" data-item-order="1000000000" data-item-id="cu_v6q3qsfkuo08" data-item-class="Curve Stroke ColorStrokeGray" data-item-index="none" data-renderer-id="0" transform="translate(615, 234)"><g id="cu_v6q3qsfkuo08-stroke" fill="none" stroke-linecap="round" stroke-linejoin="round" stroke-miterlimit="4" stroke="#888888" stroke-width="2" stroke-dasharray="5.0, 7.0"><g><path d="M 10 10L 10 22L 10 34L 19 34L 28 34"></path></g></g></g><g id="g-root-cu_v6q3qsfkuo0b-stroke" data-item-order="1000000000" data-item-id="cu_v6q3qsfkuo0b" data-item-class="Curve Stroke ColorStrokeGray" data-item-index="none" data-renderer-id="0" transform="translate(615, 234)"><g id="cu_v6q3qsfkuo0b-stroke" fill="none" stroke-linecap="round" stroke-linejoin="round" stroke-miterlimit="4" stroke="#888888" stroke-width="2" stroke-dasharray="5.0, 7.0"><g><path d="M 10 10L 10 17.5L 10 58C 10.000002 64.627417 15.372585 70 22.000002 69.999999L 22.1 70L 28 70"></path></g></g></g><g id="g-root-tx_unsuperv_1qdty7ofkru9u-stroke" data-item-order="1000000000" data-item-id="tx_unsuperv_1qdty7ofkru9u" data-item-class="Label Stroke" data-item-index="none" data-renderer-id="0" transform="translate(639, 246)"></g><g id="g-root-tx_intrinsi_1d2dfucfkrvus-stroke" data-item-order="1000000000" data-item-id="tx_intrinsi_1d2dfucfkrvus" data-item-class="Label Stroke" data-item-index="none" data-renderer-id="0" transform="translate(111, 273)"></g><g id="g-root-cu_qqwlmcfkuosl-stroke" data-item-order="1000000000" data-item-id="cu_qqwlmcfkuosl" data-item-class="Curve Stroke ColorStrokeGray" data-item-index="none" data-renderer-id="0" transform="translate(285, 261)"><g id="cu_qqwlmcfkuosl-stroke" fill="none" stroke-linecap="round" stroke-linejoin="round" stroke-miterlimit="4" stroke="#888888" stroke-width="2" stroke-dasharray="5.0, 7.0"><g><path d="M 28 10L 28 22L 28 34L 19 34L 10 34"></path></g></g></g><g id="g-root-cu_qqwlmcfkuoso-stroke" data-item-order="1000000000" data-item-id="cu_qqwlmcfkuoso" data-item-class="Curve Stroke ColorStrokeGray" data-item-index="none" data-renderer-id="0" transform="translate(285, 261)"><g id="cu_qqwlmcfkuoso-stroke" fill="none" stroke-linecap="round" stroke-linejoin="round" stroke-miterlimit="4" stroke="#888888" stroke-width="2" stroke-dasharray="5.0, 7.0"><g><path d="M 28 10L 28 17.5L 28 58C 27.999999 64.627415 22.627416 69.999998 16 69.999998L 15.9 70L 10 70"></path></g></g></g><g id="g-root-tx_minimals_1hi6xysfkrv2j-stroke" data-item-order="1000000000" data-item-id="tx_minimals_1hi6xysfkrv2j" data-item-class="Label Stroke" data-item-index="none" data-renderer-id="0" transform="translate(639, 282)"></g><g id="g-root-tx_noveltya_zrjek4fkru9x-stroke" data-item-order="1000000000" data-item-id="tx_noveltya_zrjek4fkru9x" data-item-class="Label Stroke" data-item-index="none" data-renderer-id="0" transform="translate(87, 309)"></g><g id="g-root-tx_evaluati_1lt0necfkun7w-stroke" data-item-order="1000000000" data-item-id="tx_evaluati_1lt0necfkun7w" data-item-class="Label Stroke" data-item-index="none" data-renderer-id="0" transform="translate(111, 18)"></g></g></g></svg>